PathFileType	4	(X/Y/Z)	Patient5_TMGait_0pt45_1_right_07.trc.trc
DataRate	CameraRate	NumFrames	NumMarkers	Units	OrigDataRate	OrigDataStartFrame	OrigNumFrames
59.071729957806	59.071729957806	4	32	mm	59.071729957806	71	       141
Frame#	Time	R.ASIS			L.ASIS			Chest			R.Shoulder			Neck			L.Shoulder			L.Elbow			L.Wrist			R.Elbow			R.Wrist			L.Thigh.Superior			L.Thigh.Lateral			L.Thigh.Inferior			L.Patella			L.Shank.Superior			L.Shank.Lateral			L.Shank.Inferior			L.Heel			L.Midfoot.Lateral			L.Midfoot.Superior			L.Toe			R.Thigh.Superior			R.Thigh.Lateral			R.Thigh.Inferior			R.Patella			R.Shank.Superior			R.Shank.Lateral			R.Shank.Inferior			R.Heel			R.Midfoot.Lateral			R.Midfoot.Superior			R.Toe			
		X1	Y1	Z1	X2	Y2	Z2	X3	Y3	Z3	X4	Y4	Z4	X5	Y5	Z5	X6	Y6	Z6	X7	Y7	Z7	X8	Y8	Z8	X9	Y9	Z9	X10	Y10	Z10	X11	Y11	Z11	X12	Y12	Z12	X13	Y13	Z13	X14	Y14	Z14	X15	Y15	Z15	X16	Y16	Z16	X17	Y17	Z17	X18	Y18	Z18	X19	Y19	Z19	X20	Y20	Z20	X21	Y21	Z21	X22	Y22	Z22	X23	Y23	Z23	X24	Y24	Z24	X25	Y25	Z25	X26	Y26	Z26	X27	Y27	Z27	X28	Y28	Z28	X29	Y29	Z29	X30	Y30	Z30	X31	Y31	Z31	X32	Y32	Z32	

71	12.355000000000	1059.824064423134	984.573412113774	562.634791695279	1091.762173163203	958.726711477450	326.576658751904	1162.002547909446	1433.319357653577	448.556661662829	1045.263951009247	1503.229346463435	600.200137522902	1044.278299699235	1559.943092518873	413.551742974117	1126.573789587950	1499.210004878762	244.278195973752	1048.427384058257	1184.994904328483	110.595100671105	1153.507560929909	916.448587314992	122.864834665049	941.757594425357	1188.601598971231	736.993721226568	1157.453786393679	996.377114209407	706.358441157297	1143.906104893348	757.120909384050	319.944488173261	1088.722571869451	673.047347951262	274.944720303606	1165.319899862513	633.499116260709	349.937080217869	1187.350633181961	517.516496546119	361.590514858801	1147.816662303097	407.985592709785	376.928279870498	1096.401476445416	333.255745795921	292.632471759559	1124.466468844491	282.563671782948	382.695467245692	1010.382386669691	49.828898645746	379.365377856745	1100.855762028397	26.921682137453	321.109687006049	1195.680440920974	89.815702376778	369.420574848779	1302.720389858490	48.401599177084	377.197072284216	1054.231169845447	748.320106760601	592.879614870478	953.178929037893	681.973639373123	639.296251004654	1036.721093902371	615.795725313627	582.637948566382	1018.425945654667	514.113235696400	614.989482809936	942.823408417371	422.569483501694	570.243571688528	843.966660050087	386.415576684516	642.570940579876	876.295154825075	299.039563639572	566.234831014407	680.720746049236	126.397196294534	524.407732368793	743.645317386348	66.983750136910	594.332117590807	863.945229574385	97.771414150110	581.844076790273	947.368915652781	41.320216325301	574.596969804038	
72	12.371928571429	1059.323442074247	986.876534572137	559.076605235781	1093.182660353910	959.595667471087	323.655124540626	1162.257794501458	1434.718726724346	446.248497050301	1043.329705865721	1504.571516903284	596.168538759759	1045.104239030770	1561.425663887914	409.580682578116	1130.169808284318	1500.836682156830	241.705665413592	1055.856571838146	1186.617199320579	106.024054272662	1163.328058598893	919.156837291037	119.687373814185	937.519163342986	1189.904620424583	731.129943911608	1152.891060895792	997.124431415332	701.878551483467	1143.076918065760	756.941291825123	318.421385530368	1087.041228815944	673.244436037048	272.445830736523	1162.427082665200	632.714963148870	347.987962377209	1182.787801834159	516.521190839397	359.639070222793	1142.548064579317	407.545326218338	375.254491656097	1090.827773810934	332.746365284410	291.190571461900	1118.351121394121	282.342636085138	381.593376021764	1003.001224967514	49.866346190971	379.190656442680	1093.465837999455	26.871542886022	320.963304634198	1188.333679846250	89.690381135845	369.253283058925	1295.411913097243	48.028926301228	377.167383459582	1058.977444036307	752.084629137933	593.465040102656	959.882140797459	683.992741736578	640.044162313056	1045.628989411664	618.819152940495	585.258004968500	1028.441419286280	516.110619043728	618.473438433438	950.564368105379	424.609907966179	573.389313463786	850.515309969769	390.798332930322	645.663385923903	880.082206904592	302.936788486708	568.751491773149	679.607821399035	139.088545309627	526.550144597245	739.609194274676	75.629837470844	595.431362894346	861.271614907228	101.051152811363	583.614963484232	941.664732711987	41.074432547951	575.220850228389	
73	12.388857142857	1058.747594864232	988.983276933023	555.762297720219	1094.255150380111	960.346828840964	320.858464631955	1162.168568294671	1435.920171873328	443.920304598520	1041.193300941550	1505.687759356998	592.169703590065	1045.634125103830	1562.722155445982	405.692525026890	1133.276348199506	1502.263728298048	239.187307581477	1063.121737622722	1187.988783967880	101.601913182648	1173.042758487736	921.658695238237	116.589957690755	933.514636705398	1190.901057308425	725.403484270716	1148.445154693289	997.461105981847	697.544073859461	1142.002287506439	756.809442193476	316.950102202478	1085.202991136179	673.496022148475	270.098301314126	1159.513345171074	631.988635732235	346.022974174892	1178.234027718401	515.547511767694	357.617778934219	1137.297425664678	407.094738805413	373.567871736547	1085.154886326158	332.283199043148	289.741921039823	1112.236447693672	282.125430321900	380.485893410158	995.515619995439	49.942681362778	379.012582356347	1085.965806656026	26.821566297671	320.822149976758	1180.910129405372	89.524575965927	369.089598772463	1288.008832921576	47.602166221751	377.153718155246	1063.634757877280	755.984146534869	594.398949211478	966.719215355702	686.115197970335	641.042876370580	1054.578686206738	622.074618939168	587.946330103222	1038.589435721406	518.391792387117	621.954430072099	958.663946611113	427.040310747341	576.636889226512	857.540364365655	395.527842130578	648.930108547491	884.353073797382	307.293947610483	571.367603037794	679.452135267978	152.656737223936	528.835281875758	736.135746155543	85.185945570899	596.606247300965	858.962033558852	104.964833797957	585.425316857944	936.107574609186	40.758748133320	575.949254840466	
74	12.405785714286	1058.225136169104	991.031757549436	552.708316730778	1095.006364244785	961.031168580359	318.131918554744	1161.755420911633	1437.002779164497	441.568426577254	1038.882880683843	1506.662568474056	588.231839186463	1045.871357692277	1563.886257142857	401.905852457440	1135.832416912165	1503.542345471165	236.704217162241	1070.092849745741	1189.139786035964	97.400986741644	1182.570723177856	924.005590130161	113.559329490761	929.641553896469	1191.662880911290	719.767173489248	1144.093839660612	997.519291798623	693.395177039928	1140.699678795319	756.638320647473	315.252332365041	1083.073755301059	673.740723809621	267.848554723556	1156.586164098218	631.283761000287	343.886802281357	1173.728265701267	514.609344062172	355.475817880927	1132.096138460193	406.645475170849	371.866679532584	1079.372033107662	331.883951191725	288.313089770386	1106.147810565608	281.925775908378	379.378111272323	987.942951077169	50.042797812071	378.831537092034	1078.372736284019	26.777791912033	320.682844588382	1173.413950416072	89.351097072844	368.911355860328	1280.516888628885	47.179265471274	377.123309371265	1068.102870107987	760.016307579785	595.512905899362	973.502583449653	688.440799134420	642.193597730402	1063.324227806047	625.598935825722	590.557291107037	1048.607627419619	521.030972732923	625.320275033090	966.871069174287	429.895439830879	579.871490230152	864.787295965096	400.619269927877	652.250642636312	888.943167858822	312.103033063591	574.004847508699	680.190148105359	166.871087156532	531.191654448092	733.200243085474	95.492578422888	597.808227523283	856.973670877423	109.438804973772	587.254316384885	930.622602989776	40.384203079239	576.753899080265	
